<svg version="1.2" xmlns="http://www.w3.org/2000/svg" viewBox="0 0 1024 1024" width="1024" height="1024">
	<title>0-svg</title>
	<style>
		.s0 { fill: #000000 } 
	</style>
	<path id="Layer" fill-rule="evenodd" class="s0" d="m826 453q34 1 59-3 24-4 27-5-2 17-13 31-11 13-26 14-14 1-31 0-18-1-25-3-8-2-11-3 11 104 15 139-6 6-9 8-24-28-54-47-31-18-53-24-23-6-49-7-25-1-32 1-8 2-13 4-2-2-4-2-29 17-52 41-23 23-32 43-9 19-12 43-3 23-3 37 0 15 3 27 6-3 8-6 5-15 25-29 19-13 35-20 41-19 62-28 42-17 97 20 56 36 65 80 5 16-2 24-7 8-14 14-6 7-19 7h-25q-17 6-16 9 0 6 45 11 33 4 38 15 5 12-7 23-12 11-35 18-11 4-27 5-15 2-22-2-12-5-18-8-10-5-14-11-6-10-9-14-5-9-7-15-3-7-4-11-1-7-2-9-1-2-1-3-6-2-9-2-7 25-17 47-33 71-109 71-36 2-41 3-6 3-23 17-18 14-36 20-12 5-27 5-8 0-16-2-17-2-32-16-14-14-20-32-6-17-12-43-7-25-11-48-4-22-10-47-6-24-15-40-12-19-27-28-15-10-30-10-14 0-29 5-16 6-21 9-5 3-8 5-14 26-18 47-5 20 2 32 6 11 15 18 9 7 14 9 5 2 7 2 22 1 33-9 12-10 7-23-4-14-19-19-13-4-19-11-7-7-6-9 2-3 2-4 7-6 21-7 14-1 28 3 13 5 25 16 12 11 17 31 3 26-22 44-25 17-57 19-33 2-63-12-25-16-34-51-3-14-3-27 0-22 9-44 13-35 41-49 24-15 52-14 27 1 38 6 10 4 16 8 11-3 27-59 13-44-17-160-2-6 1-11 3-5 5-6 2-1 3-1 198-18 297-26-11-6-16-11-5-5-12-23-7-19-9-48-2-43 37-76 40-33 90-44 11-3 23-3 9 0 17 2 21 3 36 11 16 8 26 17 10 10 10 15 0 13 6 40 10 22 21 43 11 20 24 33 7 1 10 6 14 17 2 24-15 19-58 30 13 12 46 13zm-127-93q6 3 12 5 6 2 9 5l7 7q4 5 5 8 1 3 4 8 3 5 5 7 2 2 4 6 3 4 6 6 3 2 7 3 21 8 28-17-45-35-60-46 15-26 23-39-27 10-51 29-14 10 1 18zm49-12q1 2 6 2 5 0 14-6-4-5-9-10-3-1-11 6-2 6 0 8zm-420 380q-3-41 7-81-25 12-52 52 30 19 45 29zm109-243q-2-1-3-1-21-2-35-2-13 0-26 3-14 3-20 7-6 4-12 11-6 8-9 14-3 6-4 14-1 8-1 14v14q0 7 1 13 0 5 1 8 1 8 4 15 3 6 7 8 4 2 8 3 29-68 89-121zm270 4q23 10 35 14 8 3 12 7 4 1 5 2 1-45 2-67-10 1-25 4-14 3-25 4-12 1-24 3-14 2-20 3-10 1-19 7-9 5-13 6-4 1-8 7-4 5-5 7-1 1-2 5-0.7 2.7-1.4 4.1 3-3.6 15.4-7.1 14-4 29-5 14-1 27 1 8 2 17 5zm-89 7q0.3-0.3 0.6-0.9-0.4 0.4-0.6 0.9z"/>
</svg>