<svg version="1.2" xmlns="http://www.w3.org/2000/svg" viewBox="0 0 1024 1024" width="1024" height="1024">
	<title>1-svg</title>
	<style>
		.s0 { fill: #000000 } 
	</style>
	<path id="Layer" fill-rule="evenodd" class="s0" d="m171 524q-7 5-15 13-9 8-14 9-5 0-10-9-5-9-7-21-2-13-1-28 1-15 12-31 11-15 32-25 1-3 2-4 2-3 1-8-1-4-7-5 0-1-12-1-13 0-19-1-6-1-12-4-3-1-3-4 0-3 4-7 7-8 28-22h7q4 0 10 1 9 3 14 4 8 2 17 6-9-12-14-18-5-5-9-7-4-2-7-2-7-1-16 0-10 1-14 2-5 2-7 2 13-18 17-23-13-25-18-33 25 5 38 8 5-5 7-6 16-11 25-17 4-3 7-4 4-2 5-3 12-1 18-2 17 0 39 1 23 1 32 7 2 24 3 32 5 7 7 10 8 9 20 23 11 14 23 28l23 23q10 10 15 10-2 7-3 11-3 9-10 20-7 11-14 12-2 7-3 11-2 8-11 16-9 8-23 6-28-5-33 19v1.9q-0.8-0.5-8-2.9-9-3-24-2-14 1-26 12-31 25-55 0-4-3-11 2zm124-9v-0.1q0.2 0.1 0 0.1zm-51-193q1-2-2-3-3-1-4-3-2-3-4-5-4 3-7 3-3 0-5 3-2 3-3 5-1 2 0 5 17 1 25-4zm-21-50q-8-30-11-40 22 12 30 16 17-23 22-30 13 23 18 30 26-12 34-16-16 30-21 40zm710 178q3 17 3 27 0 8-2 12-2-16-29-35-26-18-76-26-22-5-43 2-20 7-37 16-18 9-32 23-13 12-20 18-5 5-8 9 22-15 54-18 33-3 66 5 33 8 60 27 28 18 38 43 21 50-14 110-10 14-14 22 0-2 2-10 2-7 1-17-2-16-2-24-1-13-7-28-5-16-13-32-8-16-21-32-15-18-35-24-21-6-38-6-17 0-36 6-18 6-25 9-8 3-11 4l-24 72q-11 29-25 55-14 26-24 40-11 14-25 27-14 12-24 17-9 5-18 9-9 4-16 4h-14q-26 34-53 47-27 14-42 11-15-3-30-14-14-10-18-16-4-6-6-10-15 13-28 17-13 4-28 2-14-2-25-10-11-8-25-22-13-13-23-25-16-19-24-29-13-16-22-25-58-66-35-121 6-12 25-13 20-1 32 1 12 3 19 5 14-14 31-18 18-4 24-4 6 0 9 1 5-5 13-10 9-5 14-5 5 0 11 1 6 1 8 2 2 1 3 2-4 9-1 15 3 6 5 8 2 2 7 2h5q2 0 3-1-3 10-1 21 2 11 3 15 1 5 2 7 34 27 67 39 34 13 56 10 21-4 41-14 19-10 25-15 7-6 9-8-6-7-9-11-23 15-45 23-21 8-37 7-15-1-29-4-15-3-23-11-8-8-16-18-8-9-13-17-5-12-8-17-4-10-4-13 0-3-1-5h-25v-14q24-56 32-75 40 26 54 35 118 21 177 32 5-71 28-114 24-43 47-58 24-16 55-16 30 0 42 3 11 3 18 6-26-1-40 6-13 6-30 13-18 7-25 17-7 11-17 21-11 10-14 21-3 12-7 20-4 8-5 17-1 9-2 12-1 3-1 6 44-103 200-78 47 7 56 61zm-483 383q-4 5-1 10 2 5 6 10h-17q-3 68 0 83-1-2-2-3-2-4-6-5-4-1-7-5-3-4-7-4h-7q-8 10-12 16-29 39-38 40-9 0-7-12 3-23 26-43 5-5 5-6 0-1-7 0-30 5-33 0-4-5 0-9 13-12 55-12 18-50 24-67 21 3 29 4-1 2-1 3zm-123-9v84l-3-2q-3-4-5-5-3-3-8-5-5-2-8-4-3-3-6 0-3 2-12 14-28 41-38 41-8 1-7-11 3-24 26-43 6-5 6-7 0-2-7-1-31 5-35-1-3-4 1-8 14-11 56-11l24-68 28 4q-1 3-2 4-1 3 0 9 1 6 6 10z"/>
</svg>