<svg version="1.2" xmlns="http://www.w3.org/2000/svg" viewBox="0 0 1024 1024" width="1024" height="1024">
	<title>10-svg</title>
	<style>
		.s0 { fill: #000000 } 
	</style>
	<path id="Layer" fill-rule="evenodd" class="s0" d="m911 867q2 7 2 15 0 9-3 18-5 16-15 17h-2q-18 0-63-43-47-46-60-87-90-11-171-68-4 3-46 11-42 8-101 7-60-1-87-23-5 6-8 9-6 7-19 20-13 13-29 25-15 11-37 21-21 10-42 13h-2q-3 2-7 1-4-1-7 1-3 3-6 4-3 1-2 3 0 5-5 18-5 13-17 30-11 16-27 24-17 9-38-1-15-4-15-15v-1q1-12 5-20 3-7 10-16 5-3 27-27 23-23 53-48 29-24 44-36 2-8 4-12 4-12 8-30 4-17 10-36 8-24 11-35 6-16 9-21v-30q-1-32-10-64-8-32-24-35-6 3-9 4-10 4-24 8-14 3-24 0-6 6-9 10-8 10-23 18-16 8-31 5-15-3-20-19-6-16 1-37 6-20 18-33 25-39 87-59 26-18 27-21 1 0 2-9 1-9 4-18 3-9 8-10 9 2 10 7-1 4 5 25 7 22 19 61 12 39 33 72 20 34 54 61 34 26 76 27 24 1 53 1h48q22 2 43 2 22 0 37 1 15 1 31 4 15 3 25 7 10 4 19 10 8 6 13 15 10 20 20 52 11 34 17 52 6 20 12 23 7 3 18 19 10 15 23 34 13 18 22 35 8 18 10 26 2 8 5 10 3 2 9 3 6 1 17 1 10 0 18 3 12 5 16 21zm-521-358q-30-20-46-48-16-27-28-58-11-31-15-49-4-19-4-22 13-1 51 21 17 8 10 9-8 2-15 13-10 16 5 15 13 0 39 15 26 15 17 16-9 0-18 13-12 15 2 15 18 0 45 18 17 10 9 10-10 0-10 21 22 5 23 28-35 2-65-17zm-151-121q-5-7-18-10h-4q-7 5-11 13 5 5 9 8 4 3 11 5 7 2 11-2 6-7 2-14zm568 198q-19-1-40-1-22 0-39-8-17-8-15-25 7-3 10-4 17-6 26-10 15-6 25-12 7-5 11-6 5-1 7 0 2 1 4 6 2 5 4 6 7 6 17 5 17-2 25-3 14-2 17 1 1 2 2 20 1 17 11 20 15 5 14 24-1 18-18 16-7-4-12-5-5-1-11-6-6-6-8-7l-7-7q-2-3-3-4-2 1-20 0z"/>
</svg>