<svg version="1.2" xmlns="http://www.w3.org/2000/svg" viewBox="0 0 1024 1024" width="1024" height="1024">
	<title>11-svg</title>
	<style>
		.s0 { fill: #000000 } 
	</style>
	<path id="Layer" fill-rule="evenodd" class="s0" d="m257 637q-18-12-36-54-8-20-20-44-13-23-22-43-9-19-14-39-5-4-10-6-5-2-15-8-9-6-14-14-4-7-4-15v-3q3-6 8-10 5-4 15-5 11-1 19 1 11 3 16 4 8 2 11 2 5 2 9-6 7-23 10-31v-6q3-11 4-16 2-10 5-20 3-10 10-18 8-8 16-11l3 3q5 2 9 17 4 15 5 41h40q1-1 1-2 2-1 5-4l6-6q7-4 9-9 2-4 7-9l14-14q2-1 3-2 3-2 7 2 4 4 4 12 0 25 1 36 1 11 6 12 6 4 10 5 6 4 9 5 4 2 5 3h57q3 6 4 10 2 9-7 22-8 14-29 21 7 33-26 89-10 16-23 35-1 1-1 2-2 1-3 2l-28 40q-6 7-8 11-7 9-14 16-7 8-15 10-21 5-39-6zm35-36q3-2 5-2 2-1 4-3 2-2 3-6 4-7 6-11-5-6-18-10-3 1-8 1-5 0-11 4-5 5-8 7-3 3 2 9 5 7 18 13 5-2 7-2zm31-131q-1 13 2 18 9 7 21-1 1-7 2-11 1-4 1-6v-6q-2-5-6-9-4-4-10-1-9 2-10 16zm-84 17q3-1 5-1h7q3 0 5-4 2-4 3-11-14-27-22-10-10 17 2 26zm16 166q10 7 30 7 19 0 36-15-1 10-2 15-2 19-11 35-9 16-26 16-32 1-38-66 7 5 11 8zm634-30q-12 7-22 17-9 9-15 23-6 14-6 31 0 16 9 34 13 27 19 55 7 28 8 41 1 13 0 19-10 54-48 88-12 11-21 14-9 3-13-1-4-4-6-11-2-6-2-14 0-8 1-15 0-9 6-25 6-15 9-27 3-13 1-18-3-12-101-86-21 14-88 22-68 7-103 7h-57q-1 1-1 2-62 128-111 145-9 2-14 2-4-10 8-54 12-44 36-85 8-17 12-26 7-14 9-27 3-17 4-26 3-12 4-24 1-13 1-20 0-7-1-16v-9q0-8-11-22-10-14-16-20-7-7-10-11 29-21 60-95 57 47 142 63 33 4 50 6 43 7 109-3 67-11 104-1 21 4 34 13 15 10 23 15 9 6 13 16 4 8 5 12 1 3 2 4-11 0-23 7zm-418 167h54q-32 140-49 151-8-7-10-10 4-106 5-141zm262-6q19 15 25 24 7 9 10 14-19 2-29 68-1 19-12 33-11 15-16 18-6 3-9 5v-177q13 0 31 15z"/>
</svg>