<svg version="1.2" xmlns="http://www.w3.org/2000/svg" viewBox="0 0 1024 1024" width="1024" height="1024">
	<title>2-svg</title>
	<style>
		.s0 { fill: #000000 } 
	</style>
	<path id="Layer" fill-rule="evenodd" class="s0" d="m178 508q-17-23-27-54-10-28-10-55v-5q1-30 11-51 9-22 26-23h3q3-1 8 1 8 4 12 5 6 3 11 13 5 9 9 21h6q5 2 18 3 16 1 24 2 50-36 58-133-41 0-43-24 6-4 10-7 11-6 25-11 15-5 30-7 16-2 29 8 13 10 17 35 17-2 26-3 25-3 64 0 39 3 63 16h20q4-5 5-8 6-10 18-17 12-8 26-13 15-5 37 4 23 10 47 34-7 7-10 9-7 6-11 9-6 4-15 9-10 5-20 8 1 10 1 15 0 19-3 44-3 26-12 58-9 32-31 65-21 34-53 59-60 46-91 68-18 13-34 21-14 6-27 10-28 8-66 9 13-53 17-70-129 0-168-45zm279-148q16-6 19-17v-8q0-8-3-16-3-8-8-11l-1-1h-2q-7 3-11 8-5 5-6 16-1 23 12 29zm-113-32q-1 5-1 14 0 8 2 15 3 11 4 14h5q22-8 22-23-1-26-8-31-8-5-18 2-5 4-6 9zm-28 264q-1 22-13 48-12 25-37 34-5 5-15 3-10-1-12 0-2 2-8-4-5-5-5-8 0-3-3-8-3-5-1-10 2-5 1-9-1-5 0-11 1-5 1-8 1-19 25-53 51 4 68 5 0 14-1 21zm296-47q17 30 36 57 20 26 43 57 24 31 44 54 21 24 38 45 18 22 23 30 15 26 27 68 13 42 4 82-8 40-44 45-55 5-97 10-42 5-70 5-27 0-47-1-19-1-29-5-11-4-16-8-5-4-6-9-1-4-1-10-2-4 3-7 5-3 9-7 5-4 12-6 7-2 14-5 7-3 15-5 10-3 14-4l12-4q6-1 8-2h3q-2-27 9-50 12-22 25-33 13-10 31-15 17-5 25-6 8-1 12-1-18-7-32-6-14 1-27 4-12 3-21 11-9 8-17 17-7 10-13 20-6 10-10 18-4 9-6 18-3 11-4 16-19-9-33-23-15-15-22-26-7-11-12-26-5-14-6-18-2-5-2-7-14 37-21 55-34 93-67 92-21-1-29-36-4-16 10-54 15-38 24-56 9-19 16-31l-15-9q-25 58-68 121-43 62-61 47-9-9-11-23-2-13 3-35 5-21 9-33 4-13 12-34 16-39 77-181 39-13 74-32 35-20 58-37 24-17 43-37 20-19 26-26l9-12q3 19 19 48zm295 154q1 10 1 19 0 71-60 98-2 0-3 1-2 1-7 1-5 0-13-2-2-2-3-15-1-12-10-29-9-18-20-22 5-3 8-5 9-2 23-10 19-11 29-17 14-8 30-18 15-10 23-19 2 12 2 18z"/>
</svg>