<svg version="1.2" xmlns="http://www.w3.org/2000/svg" viewBox="0 0 1024 1024" width="1024" height="1024">
	<title>3-svg</title>
	<style>
		.s0 { fill: #000000 } 
	</style>
	<path id="Layer" fill-rule="evenodd" class="s0" d="m571 756q16-12 25-12 10 18 6 36-4 17-14 28-10 10-19 8-12-1-15-13-3-11 4-28 4-9 13-19zm349-195q1 13-13 21l-18 9q5 7 4 35-1 29-9 39-17 26-22 50-5 25-5 43 0 19-4 27-3 10-13 14-11 4-18 1-7-3-8-9-1-2-2-11-2-21-3-31-4-24-9-11-4 14-1 28 3 13 0 25-3 12-18 14-11 4-17-5-6-8-10-15-4-7-5-19-1-13-1-17v-7q-37-2-55-3-8 25-16 43-8 18-15 25-8 6-15 8-7 2-11 1l-10-5-2-2q-3-2-7-12-3-9-4-29-1-21-1-32v-71q1-33-15-66-16-34-35-55-3-4-8-15-5-11-2-17 3-7 4-16 1-9 3-11 2-2 3-4h133q100 2 153 46 35 28 38 48h3q12-2 13-16 0-11-10-7-7 4-9 1-2-4-2-6 0-2 1-3 3-5 4-7 2-3 4-4 2 0 6-2 4-2 6 0 4 3 6 5 4 3 8 10 4 8 4 15zm-467 255q-38 17-90 17-28 0-60-5-93-15-142-60-49-29-57-80v-3q0-12 8-28 8-17 19-29 19-18 29-27 17-17 19-20 5-6 9-18 5-12 6-32 1-19 4-38 3-18 9-38 6-19 16-32-3-5-3-11v-9h-1q-1-2-1-3 0-7-1-10-1-3-1-12 0-8 1-13 1-5 4-11 3-6 8-8 5-2 12-1 2 0 4 1 5-1 10 6 5 7 8 18 106 2 141 2 5-6 7-9 2-3 7-8 5-5 9-10 4-5 9-9 5-3 10-5 4-1 7-1h3q26 5 18 58l6 3q7 3 15 11 7 8 17 24 10 15 17 43 8 27 11 63 4 5 7 7 9 6 17 19 8 12 19 31 10 20 13 44 3 25-3 55-19 92-140 128zm-15-126q7-5 11-10 3-6 5-12 2-6-3-11-6-5-19-9-12-5-15 14-3 20 2 30 1-1 3 1 2 2 3 2 1 0 2 1 1 1 3 1 1-2 8-7zm-27-231q-4 4-5 11-2 6 0 12 1 6 2 8v1q5 12 12 13 14 0 19-25-6-25-16-25-8 1-12 5zm-120 0q-8 12-7 29 15 43 32-7 0-27-9-30-8-3-16 8zm-3 233h-1l3-9q4-9-1-18-5-9-20-10-14-1-19 9-5 10-2 24 3 13 8 23 17 2 32-19z"/>
</svg>