<svg version="1.2" xmlns="http://www.w3.org/2000/svg" viewBox="0 0 1024 1024" width="1024" height="1024">
	<title>4-svg</title>
	<style>
		.s0 { fill: #000000 } 
	</style>
	<path id="Layer" fill-rule="evenodd" class="s0" d="m732 924q48 26 28 44-9 11-37 12-28 1-72-6-44-6-68-6-17 0-29-5-12-5-18-10-7-5-10-15-3-12-5-18-2-7-2-17 0-10-1-15-5-21-19-23-15-2-27 19-4 6-4 22 0 15-3 25-3 11-13 21-11 10-39 14-29 4-75 0-106-8-131-30-19-17 7-33 14-7 70-9 55-2 58-4 2-4 1-11-1-7-7-20l-25-50q-6-13-8-18-12-29 76-98 15-11 28-12 12-1 22 0 10 1 17 9 8 8 11 10 3 2 4 4 13 28 34 46 41 35 88 35 20-28 15-72-5-44-25-85-19-41-36-74-18-34-18-39 1-5 6-8 15-7 69 8 74 39 106 95 33 56 35 102 2 46-15 98-18 51-28 69-10 19-17 29 23 0 57 16zm191-207q0 12-2 22-9 32-28 53-20 22-48 34-29 12-52 16-24 4-40 3-12 2-18-5-6-7-5-10 3-7 4-10 3-7 5-9 2-2 4-3 76-5 95-24 35-33 43-61 7-29-3-53-11-23-29-44-29-32-44-49-26-29-39-53-10-16-11-34-1-17 2-30 3-12 13-27 10-16 20-25 9-9 22-20 13-12 23-17 9-5 20-12 11-7 15-8 4-1 7-2 17 5-22 62-29 36-43 55-8 14-8 21 0 7 4 16 4 10 11 16 7 6 19 18 15 18 23 27 12 14 26 40 13 25 24 55 12 33 12 58zm-617-422q-6-20-1-37 5-18 17-32 2-4 3-5 5-4 14-8 9-5 19-7 11-2 26 2 15 5 29 18 24 20 0 73-9 16-27 25l-4 2q-22 9-52-4-18-8-24-27zm-50 257q-22-8-33-19-11-11-23-21-13-11-16-16-3-5-5-8-41 4-62-18-7-9-7-15 0-2 1-4 2-8 12-15 10-7 27-11 4-2 16-2 2-21 24-42 23-22 80-39 85-25 166 10-12-38 9-84 6-10 17-22 11-11 20-12 10-1 21-3 11-2 15-1 4 1 7 1 77 6 99 54 4 10 5 25 1 15-3 32-4 16-15 32-10 17-32 25-23 8-54 6-7-2-15-2-8 0-14-1 1 2 2 3 5 10 5 24v26q0 14-3 28-3 13-4 19-1 6-1 10 3 2 8 12 5 10 11 18 6 9 13 22l15 27q7 15 13 33 6 19 11 41 5 23 8 46 5 36-2 49-19 31-106-79-19-23-37-29-18-6-41 2-22 8-44 34-15 18-28 30-17 18-26 27-15 14-26 23-11 8-22 13-12 5-20 2-14-4-15-25-1-20 6-43 7-22 17-36 20-26 66-116-18-4-40-11zm37-122q4 1 9 0 5-1 8 1 3 2 7 1 5-1 7 0 2 1 4 1 2 0 2 1h1q15-8 25-18-6-7-12-10-6-3-13-7-18-10-38 31z"/>
</svg>