<svg version="1.2" xmlns="http://www.w3.org/2000/svg" viewBox="0 0 1024 1024" width="1024" height="1024">
	<title>5-svg</title>
	<style>
		.s0 { fill: #000000 } 
	</style>
	<path id="Layer" fill-rule="evenodd" class="s0" d="m916 673q2 6 2 12v6q-2 8-4 15l-3 12q-1 6-1 5-10 7-18 6-10-2-15-2-8-1-14-11-6-9-12-15-6-6-10-18-4-13-7-19-4-6-8-16-9-23-16-29-3-1-4-1 6 64 1 113-5 49-13 80-9 30-21 50-12 19-20 25-9 7-14 4-5-3-5-11 0-8-3-17-3-9-2-24 1-14 0-24-1-11 0-22 1-11 1-15v-7q-22 5-62 11-1 8-3 38-2 29-6 49-3 19-11 19-18 1-21-49 1-37 2-55-2 1-12-1-9-2-18 0-9 2-25-1-15-3-27-2-12 1-28-1-15-2-25-2-11 0-22-1-9-1-14-1-3 0-5-1-6 59-25 94-19 35-34 36-14 1-22-3-3-3-3-21 0-17 2-35 5-54 7-72 1-10 2-14-46-6-62-8-17 32-26 48-22 39-39 64-17 24-28 18-13-8-9-86 6-69 9-104 0 3 19 7 18 4 64 3 46-1 99-17 30-12 54-33 23-22 31-43 7-22 10-47 3-26 2-35-2-10-2-15 3-8 6-13 2-3 5-5 2-1 5-2 9-3 13-4 7-2 13-2h12q6-1 9 0 3 1 4 1 118 7 138 4 11-1 18-5 10-10 45 12 35 23 48 55 8 20 27 41 18 22 39 40 20 19 26 26 4 6 6 15zm-692-7q-8-1-16-3-15-4-23-6-12-3-27-13-16-11-28-27-12-16-16-40-5-32 8-50 13-18 39-28 10-18 20-52-1 3-3 0-2-3-3-1-1 2-12-4-11-6-28-17-16-12-23-24l4-2q3-3 10-7 10-6 15-8 9-4 19-8 10-3 19-4 2-3 2-5 25-65 60-65 1 10 2 15 2 16 16 31 14 14 34 13 89-5 93-59l3-3q2-3 8-3 6 0 12 6 12 9 17 27 5 19 5 32l15 10q20 14 29 21 15 11 15 16-1 8-12 18-11 9-29 12 0 17 1 44 0 1 1 1 8 7 10 14 2 7 11 20 9 12 10 25 1 14 0 29-1 15-9 32-3 6-5 8-3 4-5 6-3 4-6 6-4 3-6 4-22 26-62 39-14 5-30 7-31 4-72-2-23-2-47-5-8 1-16 0zm15-57q19-37-5-44-18-5-19 15-1 21 7 29 9 2 17 0zm121-153q-13-6-20 6-7 13 12 18 9 1 12 2 2-12 3-19 1 0 0-1-1-1-2-1zm-23 136q3 13 14 18 2 1 2 2 14-5 19-17-2-10-2-15-8-39-26-15-10 15-7 27zm-69-126q-5-9-20-4-4 1-9 1 0 12 4 24 22-3 25-7 5-6 0-14z"/>
</svg>