<svg version="1.2" xmlns="http://www.w3.org/2000/svg" viewBox="0 0 1024 1024" width="1024" height="1024">
	<title>7-svg</title>
	<style>
		.s0 { fill: #000000 } 
	</style>
	<path id="Layer" fill-rule="evenodd" class="s0" d="m739 967l-9 3q-125 39-202 10-11-5-16-9-5-4-4-7 1-3 3-6 2-3 9-5 14-3 21-5 5-1 2-5-9-14-43-27-6-3-15 1-8 4-10 14-2 11 14 31-1 2-2 3-2 4-7 6-5 2-12 8-7 5-18 8-17 5-25 7-13 4-31 6-17 2-37 2-19 0-45-2-25-2-52-8-8-7-10-17v-2q-1-27 89-33 22-5-6-19-5-2-10-5-24-19-22-42 3-37 83-16 5-36 7-55-2-10-51 10-13 6-24 2-20-10-12-37 10-42 72-71 28-12 38-16h1q3-10-1-16 1-3-10-11-10-8-17-19-7-12-14-27-7-15-7-33 0-17 11-38 11-20 35-39v-3q-1-3-1-7 0-4-1-7-2-5-2-7-1-4-3-5-2-1-5-23-3-21 0-53 3-32 13-69 9-36 34-75 26-39 65-67 3 2 5 3 5 0 10 10 5 11 12 21 6 10 9 32 3 21 1 45-2 23-12 61-11 38-29 80-3 12-4 15h35q3-15 5-22 6-24 17-57 11-34 28-69 16-35 44-64 27-28 59-35 2 2 3 4 5 2 6 12 1 10 6 24 4 13 1 35-5 33-8 49-4 27-19 66-15 39-37 84 5 9 7 13 5 15 11 37 5 23 5 47 0 25-15 49-14 25-44 38 4 4 5 6 3 5 7 7 3 2 6 7 3 5 7 8 6 5 9 7 5 4 9 6 18 13 36 58 19 45-2 52-5-1-8-1-8-3-20-6-11-3-19-7-17 17-4 41 3 0 5-1 54-4 53 30 1 17-8 27-9 10-18 15-10 5-11 8 68 1 84 40zm-269-378q4-6 6-10 1-1 2-6 1-5 1-9 0-4-2-7-2-3-7-3l-9 3q-8 16-4 23v1q3 6 13 8zm73-30q-1 2-1 6 0 4 1 7 1 4 2 6 1 3 4 4 12 2 16-21-4-8-11-10-2 0-6 2-4 2-5 4zm-44 70h-2q-20 7-21 14-1 8 13 8h31q3-3 6-7 3-4 4-11-7-11-31-4z"/>
</svg>