<svg version="1.2" xmlns="http://www.w3.org/2000/svg" viewBox="0 0 1024 1024" width="1024" height="1024">
	<title>8-svg</title>
	<style>
		.s0 { fill: #000000 } 
	</style>
	<path id="Layer" fill-rule="evenodd" class="s0" d="m683 536q9-14 32-23 22-10 59 18-19 9-25 11l8 40q-25-9-33-12v33q-27-16-36-21-4 4-6 5-5 7-9 22-4 15 0 38 7 47-2 103-9 57-45 77 2 27-1 50-5 48-33 33-2 6-2 8-4 13-6 20-5 15-11 22-5 7-13 15-8 9-16 5-8-5-18-19 0 1-11 20-24 37-39 37-12 0-18-25-13 6-20 9-9 4-16 5-7 1-14 1-8 0-9-6-1-6 4-19 6-14 21-33-63-31 29-75 72-34 99-78 27-44-1-75-19-23-37-16-18 7-33 26-14 18-12 33 1 10 2 16 3 13 0 29-3 15-15 12-7-2-14-6-5-4-8-5-2-1-5 3-3 4-8 16-2 1-3 2-2 0-7-2-5-2-12-12-9-16-16-2-7 14-3 24-4-5-5-8-19-44 49-80v-3q2-2 1-9-1-7 1-14 2-8 3-16 1-8 3-15 2-7 6-13 4-7 8-9-5-3-8-5-6-3-18-15-12-12-23-26-10-13-20-36-10-22-12-47-6-6-9-10-9-9-19-23-10-15-13-22-2 1-2 2-3 4-9 8-6 4-10 10-6 7-9 11-5 6-7 11-16-16-22-21-11 16-15 21-9-20-12-27-17 2-22 2-1-4-1-6-1-1-1-3 0-4 3-9 5-8 11-16 6-9 25-16 18-7 44-7 26 0 48-5 23-5 48-9 26-4 43-12 18-9 33-19 15-10 18-22 3-13-2-28-4-5-6-7-5-7-18-18-14-10-28-14-5-1-7-2-18-5 4-7 52-4 53-7 1-3 1-10 0-6-1-15-1-9-4-18-3-10-3-14 0-4-1-6 37-1 49-2-11-43-15-57 2 0 3 1 3 2 8 1 5-1 14 3 8 4 16 6 8 2 17 8 10 6 18 14 8 7 16 16 8 9 14 21 7 13 11 28 1-3 2-5 11-20 13-6 2 14 9 14 23-36 46-35 14 0 14 13 2 4-5 13-8 9-13 18-5 10-14 20-9 10-12 14-4 5-6 6 21 6 31 8 7-20 26-35 0-2 4-2h9q3 0 4 1 1 1 2 1 13-16 26-22 13-6 17-5 4 1 6 2 2 1 2 4 0 7-11 26-20 27-31 41 25 8 20 22 0 4-4 6-4 2-7 2-3 0-5-1-3 5-5 7-4 2-7 5-3 3-7 5 12 2 14 8 2 6 1 11-1 5-4 9-3 5-23 9 21 17 21 39l-12-6q-1 4-4 6-3 2-8 2 4 13 5 17-32-9-42-12-6 14-8 19l-15-15q-6 15 2 38 8 19-3 30-10 12-22 11-12-1-17-2-6-7-9-10-5-5-14-12-9-7-13-9h-13q-4 0-16 2-12 2-20 2 4 9 6 13 2 7 8 15 6 7 9 13 3 6 9 9 6 3 11 3 12 2 30-5 19-7 39-14 21-7 31-7 1-5 10-20zm-15-125h11q6-5 9-7-10-9-23-3h1q-11 7 2 10zm-54-10q2 4 2 5 0 1 5 0 4-1 7-3 4-3 6-4-1-5-5-8-4-3-12-3-3 5-3 13z"/>
</svg>