<svg version="1.2" xmlns="http://www.w3.org/2000/svg" viewBox="0 0 1024 1024" width="1024" height="1024">
	<title>9-svg</title>
	<style>
		.s0 { fill: #000000 } 
	</style>
	<path id="Layer" fill-rule="evenodd" class="s0" d="m841 719q20 17 36 37 15 21 20 41 5 21 5 43 0 23-7 42-7 20-17 40-11 21-24 36-13 15-30 29-16 13-32 20-17 7-32 9-24 4-37 4-13 0-38 2h-15q-14 0-23-2-13-5-34-9-20-4-30-14-11-10-22-25-11-14-13-35-2-22 0-51 2-28 12-64 14-47 21-71-15 3-28 5-13 2-27 10-13 7-23 17-14 9-32 39-18 30-34 51-15 22-34 46-18 25-44 35-25 10-54 6-32-5-56-14-25-9-42-20-18-10-30-21-11-10-16-16-4-4-6-7 4 2 7 5 3 3 19 10 19 6 28 10 11 4 32 5 20 1 37-4 16-5 33-20 18-14 31-37 28-49 53-83 26-35 59-64 32-29 73-43 41-14 89-13 11-31 15-47 4-17 6-36 2-20-3-34-5-14-14-34-13-21-33-34-21-12-41-11-21 1-46 7-26 7-43 15-24 11-36 17-38 20-89 4-51-15-80-47 58-43 78-57-13-22-17-29-53 4-70 5-4 3-5 4-8 3-16 9-8 5-21 8-14 3-28 4-14 1-29-3 14-3 27-8 62-24-15-38 4-3 7-4 7-5 22-6 16-1 42 7 7 2 11 4 11 3 27 6 17 3 37 0 2 0 5-1l-80-68q6-6 7-8 16-16 23-24 13-14 35-25 21-11 50-20 21-6 44-6 8 0 16 1 56 3 126 44 71 41 130 104 60 62 82 126 29 83-2 197 23 7 47 19 35 14 56 30zm-420-398q20-4 18-18-2-18-27-19-18-1-26 12-8 12-4 25 10-1 22 1 9 1 17-1zm371 537q5-24-10-47-14-24-48-35-16-5-24-7-4 18-5 31-7 53 12 78 18 26 48 11 21-8 27-31z"/>
</svg>